<?xml version="1.0"?>
<svg xmlns="http://www.w3.org/2000/svg" viewBox="0 0 200 73">
  <path d="M82.34,44.39v-16a.65.65,0,0,1,.23-.48.88.88,0,0,1,.58-.21h4.49A5.31,5.31,0,0,1,91.3,29a5,5,0,0,1,1.37,3.89v.22a5,5,0,0,1-1.4,3.9,5.4,5.4,0,0,1-3.71,1.25H84.35v6.15a.55.55,0,0,1-.29.52,1.35,1.35,0,0,1-1.4,0A.58.58,0,0,1,82.34,44.39Zm2-7.81h3.22a3.09,3.09,0,0,0,2.32-.85,3.44,3.44,0,0,0,.81-2.52v-.29a3.47,3.47,0,0,0-.81-2.53,3.13,3.13,0,0,0-2.32-.84H84.35Z" style="fill:#ff6c37"/>
  <path d="M99.64,40.07V32.92A5,5,0,0,1,101,29a6.2,6.2,0,0,1,7.45,0,5.05,5.05,0,0,1,1.4,3.93v7.15a5,5,0,0,1-1.4,3.93A6.18,6.18,0,0,1,101,44,5,5,0,0,1,99.64,40.07Zm2,0q0,3.38,3.1,3.37a3.06,3.06,0,0,0,2.32-.84,3.48,3.48,0,0,0,.82-2.53V32.92a3.48,3.48,0,0,0-.82-2.53,3.1,3.1,0,0,0-2.32-.84c-2.07,0-3.1,1.13-3.1,3.37Z" style="fill:#ff6c37"/>
  <path d="M116.93,42.66a1.24,1.24,0,0,1,.27-.74.81.81,0,0,1,.58-.36,1,1,0,0,1,.55.31q.33.29.69.66a3,3,0,0,0,1.12.66,4.72,4.72,0,0,0,1.74.3,3.64,3.64,0,0,0,2.42-.75,2.7,2.7,0,0,0,.88-2.2,2.93,2.93,0,0,0-.8-2.12,5.43,5.43,0,0,0-1.95-1.25c-.77-.28-1.52-.58-2.32-.91a5,5,0,0,1-2-1.5,4.06,4.06,0,0,1-.8-2.6,4.64,4.64,0,0,1,.47-2.17,3.28,3.28,0,0,1,1.27-1.39,6.28,6.28,0,0,1,1.65-.69,7.5,7.5,0,0,1,1.83-.21,9.25,9.25,0,0,1,2.81.42c.9.29,1.35.68,1.35,1.16a1.31,1.31,0,0,1-.24.71.71.71,0,0,1-.62.38A7.41,7.41,0,0,1,124.8,30a5.19,5.19,0,0,0-2.2-.45,4.1,4.1,0,0,0-2.32.58,2.08,2.08,0,0,0-.89,1.88,2.15,2.15,0,0,0,.78,1.78,6.06,6.06,0,0,0,2,1.08c.77.27,1.53.58,2.32.93a4.8,4.8,0,0,1,1.93,1.67,5,5,0,0,1,.81,2.93,4.65,4.65,0,0,1-1.43,3.7A5.55,5.55,0,0,1,122,45.3a6.75,6.75,0,0,1-3.57-.89C117.42,43.82,116.93,43.23,116.93,42.66Z" style="fill:#ff6c37"/>
  <path d="M133.13,28.62a1,1,0,0,1,.19-.61.57.57,0,0,1,.52-.27h9.66A.6.6,0,0,1,144,28a1.12,1.12,0,0,1,.19.61,1.21,1.21,0,0,1-.19.65.59.59,0,0,1-.53.28h-3.79V44.39a.58.58,0,0,1-.3.52,1.35,1.35,0,0,1-1.4,0,.55.55,0,0,1-.29-.52V29.55h-3.85a.59.59,0,0,1-.52-.26A1.1,1.1,0,0,1,133.13,28.62Z" style="fill:#ff6c37"/>
  <path d="M151,44.39V28.75a.88.88,0,0,1,.72-1,.81.81,0,0,1,.31,0q.94,0,1.59,1.26l3.73,7.15L161.08,29q.69-1.26,1.59-1.26a.85.85,0,0,1,1,.72h0a.53.53,0,0,1,0,.25V44.37a.59.59,0,0,1-.29.52,1.37,1.37,0,0,1-1.41,0,.59.59,0,0,1-.29-.52V31.92l-3.59,6.75a.79.79,0,0,1-1.52,0L153,31.81V44.39a.58.58,0,0,1-.3.52,1.17,1.17,0,0,1-.67.22,1.23,1.23,0,0,1-.7-.19A.58.58,0,0,1,151,44.39Z" style="fill:#ff6c37"/>
  <path d="M170.48,44.28a.67.67,0,0,1,.05-.19l4.86-15.64c.14-.46.54-.69,1.21-.69s1.07.23,1.21.69l4.88,15.72a.11.11,0,0,0,0,.08v.07a.71.71,0,0,1-.39.58,1.58,1.58,0,0,1-.87.23.65.65,0,0,1-.71-.44l-1.05-3.48h-6.22l-1,3.48a.66.66,0,0,1-.73.45,1.52,1.52,0,0,1-.8-.23A.69.69,0,0,1,170.48,44.28Zm3.45-4.76h5.31l-2.66-8.87Z" style="fill:#ff6c37"/>
  <path d="M189.58,44.39v-16c0-.45.33-.69,1-.69a1.32,1.32,0,0,1,.85.3,3.2,3.2,0,0,1,.67,1L198,40.59V28.42a.57.57,0,0,1,.29-.51,1.51,1.51,0,0,1,1.4,0,.58.58,0,0,1,.3.51v16a.56.56,0,0,1-.3.52,1.16,1.16,0,0,1-.7.19,1.4,1.4,0,0,1-1.25-.9l-6.18-11.94V44.39a.58.58,0,0,1-.3.52,1.35,1.35,0,0,1-1.4,0A.55.55,0,0,1,189.58,44.39Z" style="fill:#ff6c37"/>
  <path d="M73.64,41.21a37,37,0,1,0-41.37,32A37,37,0,0,0,73.64,41.21Z" style="fill:#ff6c37"/>
  <path d="M50.3,23.29,34.72,38.88,30.3,34.46C45.65,19.11,47.17,20.47,50.3,23.29Z" style="fill:#fff"/>
  <path d="M34.72,39.25h0a.39.39,0,0,1-.27-.11L30,34.72a.36.36,0,0,1,0-.52C45.64,18.6,47.28,20.07,50.55,23a.36.36,0,0,1,.12.27.34.34,0,0,1-.1.27L35,39.14A.38.38,0,0,1,34.72,39.25Zm-3.9-4.79,3.9,3.89,15.05-15C47,20.88,45.18,20.13,30.82,34.46Z" style="fill:#ff6c37"/>
  <path d="M39.18,43.34s-4.26-4.26-4.26-4.26L50.51,23.5C54.71,27.69,48.49,34.54,39.18,43.34Z" style="fill:#fff"/>
  <path d="M39.18,43.71h0a.32.32,0,0,1-.24-.11l-4.26-4.25a.39.39,0,0,1-.11-.27.38.38,0,0,1,.11-.26L50.25,23.23a.4.4,0,0,1,.52,0,4.65,4.65,0,0,1,1.45,3.46c-.06,4.09-4.73,9.31-12.78,16.92A.35.35,0,0,1,39.18,43.71Zm-3.73-4.63,3.74,3.75c6.23-5.9,12.23-12,12.29-16.15a3.83,3.83,0,0,0-1-2.65Z" style="fill:#ff6c37"/>
  <path d="M30.41,34.57l3.14,3.14a.15.15,0,0,1-.08.26L27,39.36a.61.61,0,0,1-.57-1l3.77-3.76A.16.16,0,0,1,30.41,34.57Z" style="fill:#fff"/>
  <path d="M26.85,39.75a1,1,0,0,1-.85-.52,1,1,0,0,1,.16-1.16l3.77-3.76a.51.51,0,0,1,.74,0l3.14,3.14a.5.5,0,0,1,.13.52.51.51,0,0,1-.39.36l-6.49,1.39A.76.76,0,0,1,26.85,39.75ZM30.3,35l-3.61,3.61a.24.24,0,0,0-.05.29.23.23,0,0,0,.27.12L33,37.69Z" style="fill:#ff6c37"/>
  <path d="M58.57,14.63a6,6,0,1,0-1,9.44l-4.19-4.19Z" style="fill:#fff"/>
  <path d="M54.42,25.3a6.36,6.36,0,0,1-4.49-10.85,6.4,6.4,0,0,1,8.9-.08.35.35,0,0,1,.11.26.36.36,0,0,1-.11.26l-5,5,3.93,3.93a.34.34,0,0,1,.1.3.36.36,0,0,1-.17.27A6.35,6.35,0,0,1,54.42,25.3Zm0-12A5.61,5.61,0,1,0,56.91,24l-3.85-3.84a.39.39,0,0,1,0-.52l5-5A5.59,5.59,0,0,0,54.43,13.34Z" style="fill:#ff6c37"/>
  <path d="M58.66,14.71l-.09-.08-5.24,5.25,4.19,4.19a6.38,6.38,0,0,0,1.14-.89A6,6,0,0,0,58.66,14.71Z" style="fill:#fff"/>
  <path d="M57.52,24.44a.4.4,0,0,1-.27-.11l-4.19-4.19a.39.39,0,0,1,0-.52l5.25-5.25a.37.37,0,0,1,.52,0l.09.08a6.33,6.33,0,0,1-1.21,9.93A.35.35,0,0,1,57.52,24.44Zm-3.67-4.56,3.72,3.72a7,7,0,0,0,.83-.68,5.64,5.64,0,0,0,.17-7.77Z" style="fill:#ff6c37"/>
  <path d="M51,23.93h0a2.28,2.28,0,0,0-3.22,0L33.78,37.87l2.32,2.32L50.84,27.25A2.27,2.27,0,0,0,51,23.93Z" style="fill:#fff"/>
  <path d="M36.1,40.56a.38.38,0,0,1-.26-.11l-2.32-2.32a.37.37,0,0,1,0-.52L47.47,23.67a2.65,2.65,0,0,1,3.74,0h0a2.65,2.65,0,0,1-.13,3.86L36.35,40.47A.38.38,0,0,1,36.1,40.56Zm-1.79-2.69,1.81,1.82L50.59,27a1.9,1.9,0,0,0,.65-1.37,1.88,1.88,0,0,0-.56-1.41,1.91,1.91,0,0,0-2.69,0Z" style="fill:#ff6c37"/>
  <path d="M23.09,53.72a.33.33,0,0,0-.17.37l.62,2.67a.76.76,0,0,1-1.27.71l-4-4L31.5,40.16l4.57.07,3.11,3.11C38.41,44,33.94,48.28,23.09,53.72Z" style="fill:#fff"/>
  <path d="M22.81,58.06a1.13,1.13,0,0,1-.8-.33l-4-4a.39.39,0,0,1-.11-.27.38.38,0,0,1,.11-.26L31.24,39.89a.33.33,0,0,1,.26-.1l4.57.07a.36.36,0,0,1,.26.11l3.11,3.11a.34.34,0,0,1,.11.28.37.37,0,0,1-.13.27l-.26.22A76,76,0,0,1,23.29,54l.61,2.65a1.12,1.12,0,0,1-.54,1.24A1.25,1.25,0,0,1,22.81,58.06Zm-4.06-4.64,3.79,3.79a.38.38,0,0,0,.46.06.36.36,0,0,0,.18-.43l-.62-2.66a.71.71,0,0,1,.36-.79h0A75.54,75.54,0,0,0,38.64,43.32L35.91,40.6l-4.26-.07Z" style="fill:#ff6c37"/>
  <path d="M15.05,56.6l3.18-3.18L23,58.15l-7.54-.52A.61.61,0,0,1,15.05,56.6Z" style="fill:#fff"/>
  <path d="M23,58.52h0L15.39,58a1,1,0,0,1-.6-1.66L18,53.16a.37.37,0,0,1,.52,0l4.73,4.73a.38.38,0,0,1,.07.41A.38.38,0,0,1,23,58.52ZM18.23,54l-2.91,2.91a.24.24,0,0,0-.06.25.21.21,0,0,0,.19.15l6.54.45Z" style="fill:#ff6c37"/>
  <path d="M30.15,41.87a.37.37,0,0,1-.32-.19.38.38,0,0,1,.06-.44l3.6-3.59a.36.36,0,0,1,.52,0L36.33,40a.39.39,0,0,1,.09.37.37.37,0,0,1-.28.26l-5.91,1.27Zm3.6-3.44L31.3,40.87l4-.86Z" style="fill:#ff6c37"/>
  <path d="M36.06,40.23,32,41.1a.56.56,0,0,1-.51-.94l2.25-2.25Z" style="fill:#fff"/>
  <path d="M31.89,41.48a.93.93,0,0,1-.65-1.59l2.25-2.24a.36.36,0,0,1,.52,0L36.33,40a.39.39,0,0,1,.09.37.37.37,0,0,1-.28.26l-4,.87A.68.68,0,0,1,31.89,41.48Zm1.86-3-2,2a.17.17,0,0,0,0,.22.17.17,0,0,0,.2.1L35.32,40Z" style="fill:#ff6c37"/>
  <path d="M58.7,18.27a.43.43,0,0,0-.77.38A1.26,1.26,0,0,1,57.77,20a.43.43,0,0,0,.06.6.43.43,0,0,0,.6-.05A2.14,2.14,0,0,0,58.7,18.27Z" style="fill:#ff6c37"/>
</svg>
